<svg id="logo" data-name="logo" xmlns="http://www.w3.org/2000/svg" viewBox="0 0 163.42 50.44"><defs><style>.cls-1{fill:#fff;}</style></defs><title>logo</title><circle class="cls-1" cx="74.92" cy="16.53" r="14.5"/><circle class="cls-1" cx="111.92" cy="16.53" r="14.5"/><circle class="cls-1" cx="148.92" cy="16.53" r="14.5"/><rect class="cls-1" x="60.42" y="16.53" width="2.83" height="32.5"/><path class="cls-1" d="M600.42,409.5h-2.83c0-7.83-5.26-13.08-13.08-13.08a13.1,13.1,0,0,0-13.08,13.08h-2.83a15.94,15.94,0,0,1,15.92-15.92C593.87,393.58,600.42,400.13,600.42,409.5Z" transform="translate(-568.58 -392.97)"/><rect class="cls-1" x="29" y="16.53" width="2.83" height="14.39"/><rect class="cls-1" y="1.42" width="2.83" height="29.5"/><rect class="cls-1" x="97.42" y="16.53" width="2.83" height="32.5"/><rect class="cls-1" x="44" y="1.42" width="2.83" height="29.5"/><circle class="cls-1" cx="1.42" cy="1.42" r="1.42"/><circle class="cls-1" cx="1.42" cy="30.92" r="1.42"/><circle class="cls-1" cx="30.42" cy="30.92" r="1.42"/><circle class="cls-1" cx="45.42" cy="30.92" r="1.42"/><circle class="cls-1" cx="45.42" cy="1.42" r="1.42"/><circle class="cls-1" cx="61.83" cy="49.03" r="1.42"/><circle class="cls-1" cx="98.83" cy="49.03" r="1.42"/></svg>