<svg xmlns="http://www.w3.org/2000/svg" viewBox="0 0 314.8 97.2"><defs><style>.a{fill:#fff;}</style></defs><title>logo_02</title><path class="a" d="M407.9,401.8a27.9,27.9,0,0,0-27.9,27.9h0v62.6h0a2.7,2.7,0,1,0,5.5,0h0V446.2A27.9,27.9,0,1,0,407.9,401.8Z" transform="translate(-263.5 -397.9)"/><path class="a" d="M479.1,401.8a27.9,27.9,0,0,0-27.9,27.9h0v62.6h0a2.7,2.7,0,1,0,5.5,0h0V446.2A27.9,27.9,0,1,0,479.1,401.8Z" transform="translate(-263.5 -397.9)"/><path class="a" d="M324.9,429.7c0-18.1-12.6-30.7-30.7-30.7A30.6,30.6,0,0,0,269,412.3V400.6h0a2.7,2.7,0,0,0-5.5,0h0v56.8h0a2.7,2.7,0,0,0,5.5,0h0V429.7a25.2,25.2,0,0,1,25.2-25.2c15.1,0,25.2,10.1,25.2,25.2v27.7h0a2.7,2.7,0,0,0,5.5,0h0V429.7Z" transform="translate(-263.5 -397.9)"/><path class="a" d="M353.8,400.6a2.7,2.7,0,0,0-5.5,0h0v56.8h0a2.7,2.7,0,0,0,5.5,0h0V400.6h0Z" transform="translate(-263.5 -397.9)"/><path class="a" d="M550.4,401.8a27.9,27.9,0,1,0,27.9,27.9A27.9,27.9,0,0,0,550.4,401.8Zm-11.1,42,1.2-13.7,21.9-1.1L540.5,428l-1.2-13.7L568.3,429Z" transform="translate(-263.5 -397.9)"/></svg>